# xmcd CD database file
#
# Track frame offsets:
#	187
#	21632
#	40197
#
# Disc length: 817 seconds
#
# Revision: 0
# Processed by: cddbd v1.5.1PL0 Copyright (c) Steve Scherf et al.
# Submitted via: CDex 1.51
#
DISCID=21032f03
DTITLE=NoB - いつだって逢いたい
DYEAR=1993
DGENRE=Pop
TTITLE0=いつだって逢いたい
TTITLE1=終わりのない夢の中
TTITLE2=いつだって逢いたい (Original Karaoke)
EXTD=YEAR: 1993
EXTT0=
EXTT1=
EXTT2=
PLAYORDER=
